<svg id="Layer_1" data-name="Layer 1" xmlns="http://www.w3.org/2000/svg" width="737.62" height="529.28" viewBox="0 0 737.62 529.28"><defs><style>.cls-1{fill:#0380ad;}.cls-2{fill:none;opacity:0.73;}.cls-2,.cls-4{stroke:#f4f4f4;stroke-miterlimit:10;}.cls-3,.cls-4{fill:#0180ae;}</style></defs><circle class="cls-1" cx="593.77" cy="85.58" r="19.12"/><circle class="cls-2" cx="593.77" cy="174.96" r="29.68"/><circle class="cls-2" cx="651.41" cy="246" r="38.5"/><circle class="cls-2" cx="107.52" cy="393.28" r="38.5"/><circle class="cls-3" cx="648.24" cy="412.77" r="50.94"/><circle class="cls-1" cx="458.67" cy="85.13" r="19.12"/><circle class="cls-1" cx="183.68" cy="242.9" r="19.12"/><circle class="cls-2" cx="458.67" cy="174.51" r="29.68"/><circle class="cls-2" cx="520.13" cy="303.15" r="38.5"/><circle class="cls-3" cx="513.14" cy="412.32" r="50.94"/><circle class="cls-1" cx="376.62" cy="444.15" r="19.12"/><circle class="cls-2" cx="376.62" cy="354.77" r="29.68"/><circle class="cls-2" cx="390.46" cy="246" r="38.5"/><circle class="cls-3" cx="242.92" cy="412.32" r="50.94"/><circle class="cls-1" cx="188.45" cy="85.13" r="19.12"/><circle class="cls-1" cx="539.25" cy="223.77" r="19.12"/><circle class="cls-2" cx="188.45" cy="174.51" r="29.68"/><circle class="cls-2" cx="265.3" cy="288.07" r="38.5"/><circle class="cls-3" cx="295.98" cy="116.95" r="50.94"/><circle class="cls-1" cx="112.47" cy="85.13" r="19.12"/><circle class="cls-2" cx="112.47" cy="174.51" r="29.68"/><circle class="cls-4" cx="98.62" cy="283.28" r="38.5"/></svg>