<svg width="911" height="631" fill="none" xmlns="http://www.w3.org/2000/svg"><circle cx="88" cy="35" r="35" fill="#CBB17F"/><circle cx="88" cy="542" r="88" fill="#CA8E35"/><circle cx="88" cy="173" r="45" fill="#CBB17F"/><circle cx="88" cy="336" r="60" fill="#CBB17F"/><circle cx="333" cy="35" r="35" fill="#CBB17F"/><circle cx="333" cy="542" r="88" fill="#CA8E35"/><circle cx="333" cy="336" r="60" fill="#CA8E35"/><circle cx="578" cy="35" r="35" fill="#CBB17F"/><circle cx="578" cy="173" r="45" fill="#CBB17F"/><circle cx="578" cy="336" r="60" fill="#CA8E35"/><circle cx="823" cy="35" r="35" fill="#CBB17F"/><circle cx="823" cy="542" r="88" fill="#CA8E35"/><circle cx="823" cy="336" r="60" fill="#CBB17F"/><path d="M859.519 197.818c-5.808-10.236-11.382-19.886-17.739-32.275-6.46-12.591-12.333-29.625-18.344-36.365-2.587-2.906-7.728-2.578-9.174-.914-10.237 11.745-31.218 73.205-33.229 86.201-.528 3.433 5.331 3.433 8.789 3.046 3.458-.387 4.476-3.651 5.566-6.954 1.113-3.369 4.008-15.104 10.129-27.609 1.851-3.787 15.79-1.516 16.261-3.563.899-3.901.557-5.772.23-9.339-.149-1.646-4.734-2.112-5.829-.762-.823 1.011-1.647 1.749-2.732 5.031-.558 1.681-5.79 2.503-5.305-1.048.696-5.105 2.964-13.77 5.269-22.102.901-3.255 5.536-3.218 6.379.054 5.67 22.024 16.667 51.976 19.021 57.876 1.29 3.231 2.877 7.822 6.352 7.993 3.474.171 16.92.463 18.31-3.142 1.826-4.739-.975-10.878-3.954-16.128ZM361.343 154.583c2.953-1.512 4.475-23.878-1.626-24.488-1.068-.105-16.146-.483-25.028-.483-11.883 0-28.465-2.52-32.058 2.669-.926 1.344-.236 18.23-.236 41.692 0 23.461-1.404 39.773 1.08 42.948 1.176 1.501 19.183 1.056 30.015 1.056 14.949 0 26.372.983 27.853-1.491 2.352-3.929 5.502-32.228-2.351-32.621-8.063-.403-31.612 16.268-43.412 23.684-1.994 1.252-5.123-.495-5.127-2.855-.023-9.095.953-20.114.785-27.118-.056-2.266 1.572-3.31 3.835-3.16 11.66.768 39.595.895 39.595-1.557 0-.811.603-11.507-.59-12.97-3.037-3.727-15.704 4.988-25.566 7.38-4.936 1.197-13.804-15.231-18.141-26.023-.996-2.478 1.09-5.903 3.618-5.05 14.577 4.93 42.616 20.826 47.354 18.387ZM625.987 455.345c-4.182-.637-10.969-.654-13.48 2.273-8.243 9.618-5.305 34.982-7.505 39.449-3.92 8.001-21.797-2.163-22.705 8.048-1.348 14.949 4.815 44.458 6.099 58.542.772 8.437-.858 18.178-2.88 24.966-1.482 4.979-9.802 3.728-10.731-1.379-7.457-40.81-19.784-112.671-21.038-117.131-4.239-15.234-23.893-11.871-31.572-7.555-6.593 3.689-8.36 5.701-11.146 16.357-6.506 24.912-.735 73.961-9.923 102.24-5 15.365-11.243 46.232-6.301 48.194 1.342.529 33.745 1.931 35.807-2.214 4.359-8.758-9.463-86.673-8.527-131.869.134-6.492 7.826-7.471 9.66-1.241 9.879 33.547 28.631 121.84 33.661 130.327 4.198 7.079 19.339 5.292 23.544 3.135 10.764-5.516 19.405-89.104 28.684-136.295 1.167-5.925 9.671-5.848 10.731.1 1.435 8.082 3.105 17.22 4.916 26.844 6.934 36.853-27.662 88.262-22.085 107.675 1.861 6.472 46.681 3.937 49.35 2.8 9.759-4.155-14.778-170.248-34.559-173.266Z" fill="#000"/></svg>