<svg width="1890" height="850" viewBox="0 0 1890 850" fill="none" xmlns="http://www.w3.org/2000/svg">
<rect x="1.96667" width="1888.03" height="850" fill="#FFFDF7"/>
<path d="M188.852 692.816C55.9913 692.816 -8.50099e-06 765.857 0 850H1890V532.125C1833.32 530.712 1796.56 541.475 1762.13 553.454C1699.97 575.084 1587.63 528.236 1503.93 569.523C1393.77 623.865 1267.66 623.865 1151.8 623.865C1060.33 623.865 939.206 661.262 843.443 661.262C742.623 661.262 591.148 613.639 453.443 623.865C371.685 629.936 286.721 692.816 188.852 692.816Z" fill="#D33030"/>
<path d="M1701.34 100.525C1834.07 100.525 1890 54.5873 1890 1.66699H1.96667V201.588C58.5833 202.477 95.312 195.708 129.703 188.174C191.803 174.57 304.02 204.035 387.63 178.068C497.68 143.89 623.657 143.89 739.395 143.89C830.776 143.89 951.771 120.37 1047.44 120.37C1148.15 120.37 1299.47 150.321 1437.03 143.89C1518.7 140.072 1603.58 100.525 1701.34 100.525Z" fill="#D33030"/>
<g clip-path="url(#clip0_162_4)">
<g opacity="0.92">
<path opacity="0.92" d="M850.493 562.32C842.731 565.025 818.74 572.314 792.057 563.053C787.628 561.525 747.565 553.136 744.748 519.456C743.449 503.884 740.773 488.863 738.144 462.319C736.86 449.406 724.059 451.943 688.534 421.182C686.546 419.455 684.903 418.018 683.823 417.071C681.789 415.436 679.066 412.945 676.421 409.43C673.307 405.32 664.919 396.166 668.127 388.082C671.304 380.075 678.346 374.681 692.885 366.474C700.709 362.058 711.93 356.542 726.281 352.079C733.903 350.765 741.508 349.451 749.13 348.122C752.322 348.351 755.515 348.58 758.723 348.809C758.723 348.809 758.285 346.425 757.628 342.605C750.413 300.459 749.646 293.185 753.95 287.867C756.031 285.285 760.382 281.785 770.413 281.144C778.191 282.045 788.442 283.864 799.913 287.776C804.686 289.411 820.758 295.187 838.396 308.191C858.193 322.8 870.791 339.763 878.49 352.63L914.798 407.627C914.798 407.627 951.997 466.857 955.033 468.172C958.069 469.486 968.476 494.394 986.536 507.995C1004.47 521.504 1014.96 524.239 1016.41 535.18C1018.7 552.448 993.375 570.434 990.84 572.207C989.76 572.956 988.696 573.659 987.6 574.331C986.051 575.294 984.486 576.165 982.905 576.975C981.309 577.8 979.713 578.533 978.085 579.221C963.077 585.532 947.177 586.189 930.854 586.846C918.71 587.335 908.694 586.571 901.793 585.761C891.542 584.218 876.346 580.535 861.103 570.725C846.158 561.113 837.472 549.682 828.255 535.99C809.866 508.667 794.185 485.378 780.367 447.878C771.79 424.62 762.15 391.062 758.707 348.809" stroke="#D33030" stroke-width="2.5" stroke-miterlimit="10"/>
<path opacity="0.92" d="M982.89 577.005C999.447 573.062 1016.83 569.349 1034.99 565.987C1055.05 562.259 1074.3 559.279 1092.64 556.91C1114.05 554.144 1130.34 552.112 1139.93 551.042C1158.75 548.949 1175.24 547.375 1188.75 546.213C1191.59 546.091 1200.78 545.388 1204.83 539.138C1208.17 534.003 1206.43 527.631 1203.35 519.226C1199.62 509.064 1193.68 495.158 1184 479.143C1181.27 474.956 1176.43 467.545 1170.48 458.193C1157.26 437.41 1153.75 431.145 1149.17 428.684C1148.32 428.226 1147.6 427.966 1146.54 427.661C1136.69 424.803 1125.9 431.649 1114.43 439.106C1112.59 440.298 1110.25 441.888 1107.57 443.874C1096.8 450.98 1086.04 458.07 1075.27 465.176L1037.12 489.856L1029.18 494.501L1020.73 499.437L995.331 514.29C999.823 511.845 1005.88 508.331 1012.75 503.594C1018.43 499.666 1026.8 493.89 1035.93 484.798C1039.09 481.65 1043.27 477.157 1047.77 471.319C1046.91 472.45 1046.22 473.306 1045.58 474.085C1043.39 476.729 1041.28 479.098 1041.25 479.067C1041.2 479.036 1044.71 475.14 1047.76 471.319C1051.95 466.078 1060.84 454.831 1066.1 440.054C1067.04 437.425 1067.98 434.354 1069.81 428.379C1069.96 427.844 1071.76 422.251 1073.38 416.261C1077.21 402.064 1079.34 392.835 1080.45 389.014C1087.27 365.848 1107.41 366.428 1123.02 340.786C1125.21 337.195 1136.6 315.496 1129.25 298.167C1120.9 278.484 1090.89 270.783 1091.08 270.431C1091.12 270.355 1092.69 271.088 1092.7 271.058C1092.75 270.966 1076.71 264.074 1059.67 254.019C1055.99 251.849 1055.24 251.284 1051.47 249.144C1043.03 244.361 1035.86 240.984 1031.08 238.86C1028.1 237.393 1023.75 235.36 1018.48 232.977C1010.42 229.309 1006.32 227.613 1002.81 226.62C990.636 223.197 979.337 226.207 973.922 227.659C962.013 230.852 954.031 236.491 946.801 241.595C937.333 248.288 930.447 255.241 925.909 260.422C924.141 259.306 922.356 258.175 920.588 257.06L903.092 248.243C902.544 247.952 901.996 247.708 901.464 247.509C894.844 245.079 887.614 248.625 884.39 250.474C882.997 251.421 880.963 252.995 879.038 255.364C870.775 265.434 873.295 285.116 873.717 289.38C874.781 300.306 874.406 316.076 867.489 336.599C869.507 339.625 871.511 342.651 873.529 345.676C880.681 356.404 887.849 367.07 895.016 377.691C902.56 389.182 910.103 400.674 917.646 412.181L920.588 416.796L929.368 430.595C930.228 431.939 931.089 433.269 931.95 434.614C951.308 432.337 977.897 427.447 1008.21 416.184C1058.81 397.404 1091.75 371.334 1091.73 371.303C1091.73 371.273 1057.55 398.015 1006.4 416.734C976.176 427.798 949.978 432.428 931.934 434.598C928.507 429.296 925.08 423.993 921.637 418.691C926.629 416.016 934.626 411.921 944.751 407.535C957.584 401.988 961.575 401.285 978.727 394.363C992.076 388.968 1002.01 384.399 1005.83 382.627C1018.21 376.866 1028.37 371.563 1035.69 367.574C1040.86 364.671 1048.32 360.316 1057.1 354.631C1067.19 348.076 1072.25 344.805 1076.22 341.275C1080 337.929 1094.93 324.313 1099.34 303.087C1100.73 296.364 1103.17 284.643 1096.6 275.627C1093.99 272.036 1090.73 269.957 1088.37 268.781C1082.91 266.366 1074.93 262.607 1065.47 257.335C1060.47 254.539 1061.53 254.936 1059.7 254.019C1041.9 245.156 1022.44 248.243 1013.78 249.618C1012.95 249.755 1012.3 249.862 1012 249.924C1006.96 251.91 998.007 256.265 990.433 265.297C982.248 275.077 973.656 292.757 979.916 303.851C981.059 305.868 986.364 308.711 996.927 314.304C1003.81 317.956 1014.56 323.396 1026.74 324.94C1029.26 325.26 1032.73 325.52 1036.47 323.748C1040.98 321.593 1043.3 317.696 1044.11 316.29C1044.61 315.419 1050.5 304.845 1044.5 296.44C1040.73 291.168 1033.63 288.662 1027.02 290.786C1021.53 292.558 1018.62 296.562 1017.85 297.785" stroke="#D33030" stroke-width="2.5" stroke-miterlimit="10"/>
<path opacity="0.92" d="M925.956 260.438C932.607 268.475 941.606 278.011 953.374 287.424C963.828 295.798 971.684 300.245 987.303 309.108C1005.55 319.469 1014.49 322.632 1024.38 324.023C1028.34 324.588 1031.67 324.741 1033.94 324.802" stroke="#D33030" stroke-width="2.5" stroke-miterlimit="10"/>
<path opacity="0.92" d="M801.791 288.907C801.556 288.8 801.353 288.678 801.134 288.555C793.857 283.742 802.527 259.337 806.768 248.472C808.192 244.805 810.07 241.275 813.184 236.874C819.428 228.057 826.752 222.891 832.198 219.377C855.767 204.141 875.595 197.8 875.595 197.8C984.455 162.912 1005.55 166.977 1015.96 169.774C1037.27 175.519 1047.55 185.055 1051.65 189.471C1055.49 193.612 1073.41 212.959 1066.88 235.713C1064.5 243.995 1059.78 249.924 1056.43 253.347" stroke="#D33030" stroke-width="2.5" stroke-miterlimit="10"/>
<path opacity="0.92" d="M1068.23 227.705C1075.43 225.398 1086.91 222.449 1100.83 222.342C1158.07 221.914 1211.74 269.928 1219.28 325.934C1220.73 336.738 1222.96 355.075 1213.44 375.079C1201.12 400.965 1168.92 413.863 1142.55 425.4C1135.71 428.395 1130 430.55 1126.24 431.894C1114.36 440.024 1102.22 448.154 1089.81 456.253C1057.66 477.249 1026.11 496.55 995.347 514.307" stroke="#D33030" stroke-width="2.5" stroke-miterlimit="10"/>
</g>
<path d="M875.392 470.388H858.083V481.421H873.138V483.576H858.083V497.65H855.876V468.233H875.376V470.388H875.392Z" fill="#D33030" stroke="#FFFDF7" stroke-width="0.75" stroke-miterlimit="10"/>
<path d="M903.749 497.65H881.996V468.233H903.013V470.388H884.202V481.268H901.84V483.423H884.202V495.511H903.765V497.665L903.749 497.65Z" fill="#D33030" stroke="#FFFDF7" stroke-width="0.75" stroke-miterlimit="10"/>
<path d="M921.543 498.184C919.508 498.184 917.724 497.97 916.206 497.558C914.688 497.145 913.405 496.534 912.372 495.754C911.339 494.975 910.541 494.043 909.993 492.927C909.445 491.812 909.117 490.589 909.023 489.214H911.198C911.417 490.543 911.824 491.644 912.435 492.515C913.045 493.386 913.78 494.089 914.672 494.608C915.564 495.128 916.582 495.495 917.708 495.709C918.835 495.923 920.056 496.029 921.339 496.029C922.623 496.029 923.89 495.892 924.954 495.617C926.018 495.342 926.942 494.929 927.709 494.41C928.475 493.89 929.055 493.248 929.461 492.5C929.868 491.751 930.072 490.926 930.072 489.993C930.072 489.015 929.9 488.175 929.555 487.502C929.211 486.83 928.616 486.249 927.803 485.745C926.989 485.241 925.893 484.798 924.547 484.4C923.202 484.003 921.527 483.606 919.524 483.193C917.881 482.842 916.456 482.429 915.267 481.955C914.078 481.482 913.107 480.947 912.341 480.336C911.574 479.724 910.995 479.006 910.635 478.211C910.275 477.417 910.087 476.485 910.087 475.43C910.087 474.284 910.337 473.23 910.823 472.282C911.308 471.335 912.012 470.525 912.92 469.837C913.827 469.15 914.923 468.63 916.19 468.248C917.458 467.866 918.867 467.683 920.416 467.683C921.965 467.683 923.374 467.851 924.657 468.202C925.94 468.554 927.067 469.058 928.022 469.715C928.976 470.372 929.759 471.182 930.353 472.129C930.948 473.077 931.324 474.147 931.496 475.354H929.383C929.18 474.559 928.851 473.826 928.397 473.153C927.943 472.481 927.349 471.885 926.629 471.396C925.909 470.907 925.048 470.525 924.047 470.235C923.045 469.944 921.903 469.822 920.619 469.822C917.928 469.822 915.877 470.311 914.5 471.274C913.123 472.236 912.419 473.566 912.419 475.247C912.419 476.011 912.544 476.683 912.81 477.264C913.076 477.845 913.499 478.349 914.109 478.807C914.719 479.266 915.533 479.663 916.55 480.015C917.568 480.366 918.82 480.687 920.322 480.993C921.198 481.176 922.106 481.359 923.045 481.558C923.984 481.757 924.892 481.986 925.784 482.261C926.676 482.536 927.521 482.857 928.335 483.254C929.148 483.652 929.837 484.125 930.432 484.706C931.026 485.287 931.512 485.959 931.856 486.754C932.2 487.548 932.388 488.496 932.388 489.581C932.388 490.834 932.122 491.98 931.574 493.034C931.026 494.089 930.275 494.99 929.321 495.754C928.366 496.518 927.208 497.099 925.878 497.527C924.547 497.955 923.108 498.154 921.543 498.154V498.184Z" fill="#D33030" stroke="#FFFDF7" stroke-width="0.75" stroke-miterlimit="10"/>
<path d="M959.728 470.388H949.196V497.65H946.989V470.388H936.566V468.233H959.728V470.388V470.388Z" fill="#D33030" stroke="#FFFDF7" stroke-width="0.75" stroke-miterlimit="10"/>
<path d="M968.288 497.65H966.082V468.233H968.288V497.65Z" fill="#D33030" stroke="#FFFDF7" stroke-width="0.75" stroke-miterlimit="10"/>
<path d="M1000.56 468.233L988.758 497.65H985.926L974.126 468.233H976.567L987.35 494.96L998.132 468.233H1000.56Z" fill="#D33030" stroke="#FFFDF7" stroke-width="0.75" stroke-miterlimit="10"/>
<path d="M1029.38 497.649H1026.74L1023.05 488.19H1008.23C1007.69 489.672 1007.12 491.246 1006.49 492.897C1005.86 494.547 1005.27 496.136 1004.71 497.634H1002.37C1003.36 495.097 1004.35 492.606 1005.3 490.161C1006.25 487.716 1007.22 485.302 1008.18 482.903C1009.13 480.504 1010.09 478.074 1011.06 475.644C1012.03 473.214 1013 470.724 1013.99 468.202H1017.1L1029.4 497.649H1029.38ZM1022.42 486.509L1015.44 470.143L1008.81 486.509H1022.42V486.509Z" fill="#D33030" stroke="#FFFDF7" stroke-width="0.75" stroke-miterlimit="10"/>
<path d="M1051.9 497.65H1034.16V468.233H1036.36V495.495H1051.9V497.65Z" fill="#D33030" stroke="#FFFDF7" stroke-width="0.75" stroke-miterlimit="10"/>
<path d="M722.525 430.688L704.325 438.833C703.965 438.038 703.683 437.457 703.511 437.091C703.151 436.999 702.916 436.693 702.822 436.158V434.691C701.821 430.413 699.536 423.276 695.983 413.252C692.431 403.227 688.863 393.951 685.31 385.394C681.758 376.852 679.442 371.152 678.409 368.294C677.36 365.452 676.703 362.915 676.421 360.684C676.515 360.241 676.656 359.798 676.828 359.354H676.969L693.104 354.953C693.839 355.397 694.794 357.765 695.983 362.029C700.271 377.264 706.328 393.646 714.184 411.189C718.926 397.649 721.852 383.713 722.932 369.379C723.48 362.166 724.278 357.016 725.326 353.945C726.375 350.873 728.112 348.642 730.522 347.267C732.932 345.892 734.607 345.158 735.514 345.066C740.522 345.158 743.731 347.206 745.092 351.209L737.846 365.498C737.111 367.102 736.25 368.966 735.248 371.106C730.319 382.062 726.172 397.115 722.807 416.262C722.071 420.541 721.711 423.826 721.711 426.149C721.711 428.472 721.977 429.985 722.525 430.688V430.688Z" fill="#D33030"/>
<path d="M747.565 433.622C748.926 417.592 749.615 400.981 749.615 383.79V381.65C749.615 378.349 749.38 370.831 748.926 359.08V356.405L748.785 354.404C748.879 353.242 749.098 352.493 749.474 352.127L750.569 351.867H750.71L762.338 346.121C764.169 346.748 765.296 349.33 765.765 353.869V356.803C765.765 358.591 765.405 364.214 764.67 373.704C763.934 383.194 763.574 392.072 763.574 400.355C763.574 408.637 763.934 416.522 764.67 423.995C766.407 424.713 767.268 426.623 767.268 429.74V436.281C763.168 441.889 760.836 444.915 760.288 445.358C759.74 445.801 759.146 446.03 758.504 446.03C757.862 446.03 756.25 445.159 753.652 443.417C751.055 441.675 748.973 440.315 747.424 439.337L747.283 437.733L747.549 433.591L747.565 433.622Z" fill="#D33030"/>
<path d="M821.431 439.764L819.24 439.367C819.147 439.367 818.129 439.183 816.157 438.832C814.201 438.481 811.071 438.297 806.783 438.297C797.487 438.297 789.506 439.504 782.839 441.904C781.65 442.163 780.883 442.301 780.507 442.301H779.694L777.503 427.34C777.863 426.897 778.238 426.546 778.598 426.271V421.335C778.598 404.862 777.737 386.478 776 366.169C775.734 364.122 775.593 362.074 775.593 360.026C775.593 357.979 776.047 356.512 776.955 355.625L791.587 354.158C791.947 354.51 792.292 355.029 792.62 355.686C792.933 356.359 793.105 358.116 793.105 360.958V363.892L792.965 372.435C792.965 392.117 793.778 408.896 795.422 422.802C801.807 422.267 808.536 422.007 815.594 422.007C822.652 422.007 827.112 422.405 828.928 423.214C830.289 424.101 830.978 425.293 830.978 426.76C830.978 428.227 830.649 429.587 830.023 430.84C829.757 431.283 828.834 432.001 827.284 432.979L825.641 432.307L823.309 433.911C822.496 435.333 822.073 436.677 822.073 437.915C822.073 439.153 821.838 439.779 821.384 439.779L821.431 439.764Z" fill="#D33030"/>
<path d="M843.325 416.261L845.235 416.123C845.782 416.123 846.33 416.475 846.878 417.193C847.426 417.911 848.286 418.66 849.476 419.47V418.935C849.288 400.766 848.38 385.545 846.737 373.244C846.283 374.314 845.955 374.849 845.782 374.849C845.61 374.849 845.376 374.803 845.094 374.711L833.732 379.784C833.09 378.806 832.777 377.538 832.777 375.979C832.777 374.421 832.997 372.709 833.466 370.83C835.109 366.108 838.975 361.08 845.094 355.732C851.479 350.842 857.77 347.724 863.967 346.379C865.704 346.028 868.662 345.707 872.856 345.447C879.883 345.631 885.893 347.312 890.916 350.521C902.137 357.733 908.381 369.439 909.665 385.652C909.665 392.865 908.209 400.078 905.283 407.291C900.353 419.852 891.464 429.372 878.6 435.882C878.24 436.065 876.644 436.6 873.811 437.487C869.711 438.465 865.219 438.954 860.337 438.954C855.454 438.954 850.149 438.19 844.405 436.677C838.208 434.446 833.826 431.695 831.275 428.394C829.992 426.606 829.366 424.513 829.366 422.114C829.632 419.714 829.914 418.232 830.18 417.713C830.993 416.291 833.638 415.038 838.114 413.969L838.928 414.228L840.164 415.436C841.166 415.971 842.214 416.23 843.31 416.23L843.325 416.261ZM892.716 385.805C892.716 376.896 889.711 369.775 883.686 364.427C879.758 360.958 875.345 359.216 870.415 359.216C867.582 359.216 864.844 359.613 862.215 360.423C862.856 365.94 863.169 372.984 863.169 381.526C863.435 395.692 864.265 409.216 865.626 422.129C878.85 420.433 887.473 411.936 891.48 396.609C892.215 393.767 892.622 390.909 892.716 388.067V385.79V385.805Z" fill="#D33030"/>
<path d="M932.513 416.262L931.418 418.402V419.074C932.231 421.03 935.627 421.993 941.606 421.947C947.584 421.901 956.582 420.679 968.617 418.279C969.165 418.279 969.681 418.509 970.182 418.952C970.683 419.395 971.074 419.624 971.34 419.624L972.029 419.227V418.295C972.029 416.873 968.617 414.337 961.762 410.685C957.568 408.897 954.595 407.659 952.873 406.941C942.106 402.585 934.767 399.055 930.854 396.381C923.108 390.956 918.82 384.492 917.99 377.02C917.896 376.225 917.802 375.644 917.724 375.278C917.912 370.999 918.366 367.759 919.086 365.528C919.821 363.297 920.917 361.204 922.372 359.248C923.827 357.292 924.923 355.993 925.659 355.366C926.394 354.74 927.99 353.624 930.447 352.02C937.38 347.481 944.485 345.204 951.794 345.204C956.535 345.204 961.481 346.503 966.629 349.086C971.778 351.668 975.816 355.412 978.742 360.302C980.292 363.236 981.074 365.268 981.074 366.384C981.074 367.5 980.933 368.416 980.667 369.119L964.798 370.861C964.611 370.953 964.439 370.999 964.251 370.999C964.063 370.999 963.891 370.77 963.703 370.327C961.606 366.415 958.053 363.603 953.03 361.907C951.574 361.647 950.197 361.463 948.93 361.372C939.712 361.632 935.111 365.773 935.111 373.795C935.111 377.356 937.803 381.406 943.186 385.944C943.546 386.296 943.875 386.525 944.141 386.616C948.335 389.917 954.923 393.722 963.906 398.032C972.889 402.356 978.038 404.985 979.368 405.917C980.683 406.849 981.951 407.858 983.124 408.927L984.908 410.532C986.739 412.931 987.647 415.147 987.647 417.149C987.647 419.15 987.412 420.862 986.958 422.298C985.503 426.394 981.481 429.954 974.924 432.98C971.825 434.233 969.728 435.211 968.633 435.914C959.337 438.68 950.573 440.009 942.372 439.918H939.227C929.837 439.291 923.092 437.137 918.976 433.438C914.876 429.74 912.779 425.309 912.685 420.144C912.685 416.675 914.328 413.068 917.615 409.325C920.353 407.812 922.059 406.986 922.748 406.849C923.436 406.711 924.156 406.65 924.939 406.65C925.721 406.65 927.192 406.91 929.383 407.445L929.649 407.705C931.386 411.005 932.388 413.053 932.654 413.848L932.513 415.177V416.247V416.262Z" fill="#D33030"/>
<path d="M995.581 391.415L994.768 361.494C994.768 357.934 995.362 356.1 996.552 356.023L1009.96 352.417C1011.06 353.303 1011.79 355.672 1012.15 359.492V362.029C1012.06 364.703 1011.9 368.31 1011.67 372.848C1011.43 377.387 1011.33 380.642 1011.33 382.598C1021.36 375.11 1030.89 366.43 1039.92 356.543C1041.47 354.755 1042.51 353.731 1043.06 353.471L1044.3 353.074H1044.44L1056.21 358.682C1056.3 358.866 1056.35 359.034 1056.35 359.217V359.752C1056.35 360.103 1056.24 360.379 1056.01 360.547C1055.77 360.73 1055.43 361.127 1054.97 361.754C1052.78 364.336 1042.66 373.062 1024.6 387.931C1023.31 389 1022.14 390.024 1021.04 391.002C1023.33 393.233 1029.23 399.682 1038.76 410.364C1048.29 421.045 1054.47 427.158 1057.29 428.671C1055.46 430 1052.59 432.094 1048.67 434.951C1044.74 437.809 1041.87 439.887 1040.04 441.232V440.835L1039.9 440.972C1039.64 439.903 1038.67 438.084 1037.02 435.501C1028.45 423.215 1019.87 413.588 1011.31 406.65C1011.67 417.699 1012.36 426.822 1013.36 434.034L1012.55 436.311C1007.98 437.289 1002.19 438.008 995.175 438.451C994.987 438.451 994.815 438.237 994.627 437.778V436.709C995.362 423.353 995.722 412.885 995.722 405.321V397.436L994.893 393.035C994.893 392.592 995.128 392.057 995.581 391.43V391.415ZM995.722 436.434C995.816 436.434 996.176 436.388 996.818 436.296C996.27 436.388 995.91 436.434 995.722 436.434Z" fill="#D33030"/>
<path d="M1060.56 367.637C1062.3 361.051 1063.55 357.75 1064.32 357.75C1065.08 357.75 1070.59 358.193 1080.79 359.08V360.409C1080.61 362.197 1080.15 364.596 1079.43 367.622C1076.6 379.908 1075.19 389.887 1075.19 397.543C1075.29 410.547 1077.48 419.67 1081.76 424.927C1083.13 426.44 1084.47 427.204 1085.8 427.204C1087.13 427.204 1088.15 426.99 1088.89 426.531C1089.62 426.088 1090 425.859 1090.04 425.859C1090.09 425.859 1090.11 425.874 1090.11 425.92C1090.11 425.966 1089.87 426.211 1089.42 426.654C1092.16 424.423 1094.16 422.512 1095.44 420.908C1098.9 416.278 1101.87 410.272 1104.33 402.876L1102.97 369.884C1103.16 364.81 1103.41 361.754 1103.72 360.73C1104.03 359.706 1104.24 358.866 1104.33 358.193C1104.43 357.521 1104.6 357.108 1104.88 356.925C1106.43 356.482 1109.23 355.962 1113.3 355.382C1117.35 354.801 1119.67 354.465 1120.22 354.373L1120.62 357.582L1121.17 369.333C1120.62 374.407 1120.36 382.032 1120.36 392.179C1120.36 402.326 1120.84 411.418 1121.8 419.426C1122.75 427.433 1123.83 432.736 1125 435.318L1122.13 442.791C1119.75 446.092 1117.43 447.727 1115.15 447.727C1112.86 447.727 1110.36 446.657 1107.62 444.518C1106.16 443.356 1105.38 440.774 1105.29 436.77C1105.02 432.491 1104.79 426.134 1104.6 417.668C1103.14 422.039 1102.05 424.942 1101.31 426.425C1100.58 427.892 1099.53 429.695 1098.17 431.834C1097.62 432.277 1096.33 433.484 1094.33 435.44C1090.31 439.184 1086.4 441.049 1082.56 441.049C1078.73 441.049 1075.04 439.796 1071.48 437.305C1063.28 431.513 1059.17 417.042 1059.17 393.891C1059.17 389.169 1059.62 380.397 1060.53 367.576L1060.56 367.637Z" fill="#D33030"/>
<path d="M1141.97 416.261L1143.88 416.123C1144.43 416.123 1144.97 416.475 1145.52 417.193C1146.07 417.911 1146.93 418.66 1148.12 419.47V418.935C1147.93 400.766 1147.02 385.545 1145.38 373.244C1144.93 374.314 1144.6 374.849 1144.43 374.849C1144.25 374.849 1144.02 374.803 1143.74 374.711L1132.39 379.784C1131.75 378.806 1131.44 377.538 1131.44 375.979C1131.44 374.421 1131.67 372.709 1132.13 370.83C1133.77 366.108 1137.65 361.08 1143.75 355.732C1150.14 350.842 1156.43 347.724 1162.63 346.379C1164.36 346.028 1167.32 345.707 1171.52 345.447C1178.54 345.631 1184.55 347.312 1189.58 350.521C1200.8 357.733 1207.04 369.439 1208.32 385.652C1208.32 392.865 1206.87 400.078 1203.94 407.291C1199.01 419.852 1190.12 429.372 1177.26 435.882C1176.9 436.065 1175.3 436.6 1172.47 437.487C1168.37 438.465 1163.88 438.954 1159 438.954C1154.11 438.954 1148.81 438.19 1143.06 436.677C1136.87 434.446 1132.49 431.695 1129.93 428.394C1128.65 426.606 1128.03 424.513 1128.03 422.114C1128.31 419.714 1128.57 418.232 1128.85 417.713C1129.67 416.291 1132.31 415.038 1136.79 413.969L1137.6 414.228L1138.84 415.436C1139.84 415.971 1140.89 416.23 1141.98 416.23L1141.97 416.261ZM1191.36 385.805C1191.36 376.896 1188.35 369.775 1182.33 364.427C1178.4 360.958 1173.99 359.216 1169.06 359.216C1166.23 359.216 1163.49 359.613 1160.84 360.423C1161.48 365.94 1161.8 372.984 1161.8 381.526C1162.06 395.692 1162.89 409.216 1164.25 422.129C1177.48 420.433 1186.1 411.936 1190.11 396.609C1190.84 393.767 1191.25 390.909 1191.34 388.067V385.79L1191.36 385.805Z" fill="#D33030"/>
</g>
<defs>
<clipPath id="clip0_162_4">
<rect x="667" y="168" width="554" height="419" fill="white"/>
</clipPath>
</defs>
</svg>
