<svg width="1890" height="850" viewBox="0 0 1890 850" fill="none" xmlns="http://www.w3.org/2000/svg">
<g clip-path="url(#clip0_201_71)">
<rect width="1890" height="850" fill="#972424"/>
<g clip-path="url(#clip1_201_71)">
<path d="M476.925 571.768L498.971 446.631L534.924 537.092L572.171 446.631L591.971 571.768H575.759L565.651 501.51L534.652 577.118L504.535 501.436L493.274 571.768H476.925Z" fill="white"/>
<path d="M618.846 455.383V525.488C618.846 535.491 620.316 542.803 623.255 547.424C625.462 550.548 628.279 553.074 631.493 554.811C634.707 556.548 638.234 557.45 641.808 557.45C645.382 557.45 648.909 556.548 652.123 554.811C655.337 553.074 658.154 550.548 660.361 547.424C663.301 542.951 664.771 535.639 664.77 525.488V455.383H680.576V530.314C680.752 535.873 679.931 541.415 678.16 546.617C676.39 551.82 673.706 556.579 670.264 560.617C666.552 564.818 662.124 568.155 657.238 570.433C652.352 572.711 647.107 573.884 641.809 573.884C636.51 573.884 631.265 572.711 626.379 570.433C621.494 568.155 617.065 564.818 613.353 560.617C609.911 556.579 607.227 551.82 605.457 546.617C603.686 541.415 602.865 535.873 603.041 530.314V455.383H618.846Z" fill="white"/>
<path d="M756.557 472.714L743.739 481.158C742.153 477.566 739.801 474.46 736.887 472.11C734.239 470.39 731.201 469.553 728.136 469.699C724.161 469.539 720.273 471.012 717.215 473.838C715.835 475.065 714.726 476.627 713.973 478.404C713.221 480.181 712.845 482.126 712.875 484.09C712.875 489.77 716.673 494.345 724.27 497.815L734.715 502.564C743.216 506.382 749.435 511.043 753.37 516.548C757.389 522.33 759.476 529.484 759.273 536.786C759.408 541.709 758.621 546.61 756.963 551.178C755.305 555.745 752.811 559.88 749.639 563.321C746.471 566.79 742.705 569.513 738.567 571.326C734.429 573.14 730.005 574.007 725.558 573.876C717.293 574.21 709.229 570.998 703.037 564.905C697.203 558.924 693.563 550.506 692.116 539.651L708.125 535.73C708.847 542.566 710.114 547.286 711.924 549.89C713.484 552.06 715.432 553.846 717.646 555.136C719.86 556.425 722.29 557.19 724.784 557.381C727.277 557.573 729.779 557.186 732.131 556.247C734.483 555.308 736.634 553.836 738.448 551.925C740.067 550.088 741.335 547.906 742.174 545.509C743.013 543.113 743.407 540.552 743.331 537.982C743.352 535.872 743.066 533.772 742.484 531.763C741.907 529.858 741.009 528.093 739.837 526.563C738.492 524.837 736.926 523.338 735.191 522.114C733.035 520.582 730.766 519.258 728.407 518.156L718.301 513.483C703.965 506.748 696.797 496.898 696.796 483.933C696.735 479.762 697.513 475.628 699.073 471.833C700.633 468.038 702.936 464.678 705.813 461.998C712.018 455.989 720.039 452.811 728.265 453.103C740.344 453.111 749.775 459.648 756.557 472.714Z" fill="white"/>
<path d="M791.354 455.383V571.773H775.549V455.383H791.354Z" fill="white"/>
<path d="M829.552 501.814L870.327 455.378H891.423L844.074 508.07L891.693 571.768H870.521L832.806 519.98L829.55 523.599V571.768H813.743V455.385H829.55L829.552 501.814Z" fill="white"/>
<path d="M921.601 455.383V555.264H952.399V571.773H905.797V455.383H921.601Z" fill="white"/>
<path d="M957.893 513.044C957.815 505.143 959.216 497.311 962.007 490.044C964.798 482.777 968.918 476.234 974.105 470.83C979.166 465.13 985.213 460.628 991.881 457.595C998.55 454.563 1005.7 453.062 1012.91 453.184C1027.33 453.274 1041.14 459.68 1051.33 471.013C1061.53 482.346 1067.3 497.69 1067.38 513.717C1067.5 521.673 1066.13 529.57 1063.35 536.903C1060.57 544.237 1056.44 550.845 1051.23 556.307C1041.21 567.22 1027.83 573.493 1013.8 573.857C999.766 574.221 986.136 568.649 975.663 558.268C963.818 546.765 957.894 531.69 957.893 513.044ZM973.834 513.261C973.665 519.165 974.617 525.042 976.627 530.51C978.637 535.978 981.66 540.915 985.501 544.998C992.772 553.007 1002.61 557.482 1012.84 557.441C1023.08 557.401 1032.89 552.847 1040.11 544.78C1047.35 536.396 1051.41 525.228 1051.44 513.602C1051.46 501.976 1047.45 490.787 1040.24 482.363C1032.92 474.254 1023.01 469.7 1012.67 469.7C1002.33 469.7 992.416 474.254 985.095 482.363C981.418 486.387 978.522 491.206 976.585 496.521C974.649 501.837 973.713 507.537 973.834 513.27V513.261Z" fill="white"/>
<path d="M1131.22 471.884H1094.72V499.851H1129.93V516.36H1094.72V571.767H1078.91V455.383H1131.22V471.884Z" fill="white"/>
<path d="M1181.21 471.884V571.767H1165.4V471.884H1141.32V455.383H1205.23V471.89L1181.21 471.884Z" fill="white"/>
<path d="M1277.12 471.884H1235.13V499.851H1275.91V516.36H1235.13V555.258H1277.12V571.767H1219.33V455.383H1277.12V471.884Z" fill="white"/>
<path d="M1326.78 471.884V571.767H1310.97V471.884H1286.89V455.383H1350.8V471.89L1326.78 471.884Z" fill="white"/>
<path d="M856.618 368.084C853.436 364.519 849.193 362.525 844.776 362.518C840.359 362.511 836.111 364.492 832.921 368.047C831.003 370.178 829.579 372.839 828.783 375.783H815.949V388.133H828.974C829.752 390.858 831.07 393.333 832.824 395.355C834.35 397.183 836.185 398.625 838.213 399.589C840.241 400.553 842.419 401.019 844.609 400.958C846.821 401.019 849.02 400.565 851.079 399.622C853.137 398.679 855.012 397.265 856.593 395.466C858.407 393.429 859.773 390.914 860.574 388.133H1012.56V375.783H860.681C859.897 372.864 858.5 370.218 856.618 368.084V368.084Z" fill="white"/>
<path d="M895.255 252.003C892.073 248.438 887.83 246.444 883.413 246.437C878.996 246.43 874.748 248.411 871.558 251.966C869.455 254.304 867.956 257.28 867.231 260.558H815.949V272.908H867.86C869.088 276.475 871.215 279.527 873.961 281.664C876.707 283.8 879.943 284.921 883.246 284.879C885.458 284.94 887.658 284.486 889.716 283.542C891.774 282.599 893.649 281.186 895.23 279.387C896.854 277.561 898.123 275.352 898.953 272.908H1012.56V260.556H899.518C898.798 257.304 897.323 254.345 895.255 252.003V252.003Z" fill="white"/>
<path d="M951.501 329.651C948.319 326.086 944.076 324.092 939.659 324.085C935.242 324.078 930.994 326.059 927.804 329.614C925.879 331.75 924.453 334.421 923.659 337.376H815.949V349.726H923.863C924.643 352.439 925.96 354.902 927.707 356.915C929.233 358.743 931.068 360.185 933.096 361.149C935.123 362.113 937.301 362.579 939.491 362.518C941.702 362.58 943.902 362.126 945.96 361.182C948.019 360.239 949.894 358.826 951.475 357.026C953.284 354.997 954.647 352.49 955.448 349.719H1012.56V337.369H955.572C954.788 334.442 953.388 331.79 951.501 329.651V329.651Z" fill="white"/>
<path d="M1012.56 298.966H815.949V311.316H1012.56V298.966Z" fill="white"/>
<path d="M1003.2 222.149C1002.48 218.906 1001 215.956 998.941 213.62C995.759 210.055 991.516 208.061 987.099 208.054C982.682 208.047 978.434 210.028 975.244 213.583C973.147 215.915 971.651 218.882 970.923 222.149H815.949V234.499H971.54C972.764 238.073 974.89 241.133 977.637 243.274C980.385 245.415 983.626 246.538 986.932 246.494C989.144 246.556 991.344 246.101 993.402 245.158C995.46 244.215 997.335 242.802 998.917 241.002C1000.55 239.171 1001.82 236.953 1002.65 234.499H1012.56V222.149H1003.2Z" fill="white"/>
</g>
</g>
<defs>
<clipPath id="clip0_201_71">
<rect width="1890" height="850" fill="white"/>
</clipPath>
<clipPath id="clip1_201_71">
<rect width="1973" height="1106" fill="white" transform="translate(0 49)"/>
</clipPath>
</defs>
</svg>
