<?xml version="1.0" encoding="utf-8"?>
<!-- Generator: Adobe Illustrator 26.0.3, SVG Export Plug-In . SVG Version: 6.00 Build 0)  -->
<svg version="1.1" id="Layer_1" xmlns="http://www.w3.org/2000/svg" xmlns:xlink="http://www.w3.org/1999/xlink" x="0px" y="0px"
	 viewBox="0 0 640 361" style="enable-background:new 0 0 640 361;" xml:space="preserve">
<style type="text/css">
	.st0{fill:#F9F7F7;}
</style>
<g>
	<g>
		<path class="st0" d="M87.2,287.1l11.2-57.4l18.3,41.5l19-41.5l10.1,57.4h-8.3l-5.2-32.2l-15.8,34.7l-15.4-34.7l-5.7,32.3
			L87.2,287.1z"/>
		<path class="st0" d="M159.6,233.7v32.2c0,4.6,0.7,7.9,2.2,10.1c4.1,5.2,11.7,6.1,16.9,2c0.8-0.6,1.4-1.3,2-2
			c1.5-2.1,2.2-5.4,2.2-10.1v-32.2h8.1v34.4c0.2,5.2-1.7,10.2-5.3,13.9c-7.9,8-20.8,8.1-28.8,0.3c-0.1-0.1-0.2-0.2-0.3-0.3
			c-3.5-3.7-5.4-8.8-5.3-13.9v-34.4H159.6z"/>
		<path class="st0" d="M229.9,241.7l-6.5,3.9c-0.8-1.6-2-3.1-3.5-4.2c-1.4-0.8-2.9-1.2-4.5-1.1c-2-0.1-4,0.6-5.6,1.9
			c-1.4,1.1-2.2,2.9-2.2,4.7c0,2.6,1.9,4.7,5.8,6.3l5.3,2.2c4.3,1.8,7.5,3.9,9.5,6.4c2.1,2.7,3.1,5.9,3,9.3c0.1,4.6-1.6,9-4.9,12.2
			c-3.3,3.2-7.7,5-12.3,4.8c-4.2,0.2-8.3-1.3-11.5-4.1c-3-2.7-4.8-6.6-5.6-11.6l8.2-1.8c0.4,3.1,1,5.3,1.9,6.5c3.2,4,9,4.6,12.9,1.4
			c0.2-0.2,0.4-0.3,0.6-0.5c1.7-1.7,2.6-4,2.5-6.4c0-1-0.1-1.9-0.4-2.9c-0.3-0.9-0.8-1.7-1.4-2.4c-0.7-0.8-1.5-1.5-2.4-2
			c-1.1-0.7-2.3-1.3-3.5-1.8l-5.2-2.1c-7.3-3.1-11-7.6-11-13.6c-0.1-3.9,1.6-7.6,4.6-10.1c3.2-2.8,7.3-4.2,11.5-4.1
			C221.6,232.7,226.4,235.7,229.9,241.7z"/>
		<path class="st0" d="M247.6,233.7v53.4h-8.1v-53.4H247.6z"/>
		<path class="st0" d="M267.1,255l20.8-21.3h10.8l-24.2,24.2l24.3,29.2H288l-19.2-23.8l-1.7,1.7v22.1h-8.1v-53.4h8.1L267.1,255z"/>
		<path class="st0" d="M314.1,233.7v45.8h15.7v7.6H306v-53.4H314.1z"/>
		<path class="st0" d="M332.6,260.2c-0.1-7.3,2.9-14.4,8.3-19.4c5.2-5.3,12.4-8.2,19.8-8.1c15.3,0.1,27.7,12.5,27.8,27.8
			c0.1,7.4-2.9,14.5-8.2,19.5c-10.6,10.4-27.5,10.8-38.5,0.9C335.6,275.6,332.6,268.7,332.6,260.2z M340.7,260.3
			c-0.2,5.5,2,10.8,6,14.6c7.7,7.7,20.2,7.6,27.9-0.1c7.7-8,7.7-20.6,0.1-28.7c-7.8-7.8-20.4-7.8-28.1,0
			C342.7,249.8,340.6,255,340.7,260.3L340.7,260.3z"/>
		<path class="st0" d="M421,241.3h-18.6v12.8h18v7.6h-18v25.4h-8.1v-53.4H421V241.3z"/>
		<path class="st0" d="M446.5,241.3v45.8h-8.1v-45.8h-12.3v-7.6h32.6v7.6L446.5,241.3z"/>
		<path class="st0" d="M495.4,241.3H474v12.8h20.8v7.6H474v17.9h21.4v7.6h-29.5v-53.4h29.5L495.4,241.3z"/>
		<path class="st0" d="M520.8,241.3v45.8h-8.1v-45.8h-12.3v-7.6H533v7.6L520.8,241.3z"/>
	</g>
	<g>
		<path class="st0" d="M280.7,188.5c-3.5-3.4-9.1-3.4-12.7,0c-1,1-1.8,2.2-2.2,3.6H259v5.7h7c0.4,1.3,1.1,2.4,2.1,3.3
			c1.6,1.7,3.9,2.6,6.3,2.6c2.4,0.1,4.7-0.9,6.4-2.5c1-0.9,1.7-2.1,2.1-3.4H364V192h-81.1C282.5,190.7,281.7,189.4,280.7,188.5z"/>
		<path class="st0" d="M301.4,135.2c-3.5-3.4-9.1-3.4-12.7,0c-1.1,1.1-1.9,2.4-2.3,3.9H259v5.7h27.7c1.3,3.4,4.6,5.5,8.2,5.5
			c2.4,0.1,4.7-0.9,6.4-2.5c0.9-0.8,1.5-1.9,2-3H364v-5.7h-60.4C303.2,137.6,302.5,136.2,301.4,135.2z"/>
		<path class="st0" d="M331.4,170.8c-3.5-3.4-9.1-3.4-12.7,0c-1,1-1.8,2.2-2.2,3.6H259v5.7h57.6c0.4,1.2,1.1,2.4,2.1,3.3
			c1.6,1.7,3.9,2.6,6.3,2.6c2.4,0.1,4.7-0.9,6.4-2.5c1-0.9,1.7-2.1,2.1-3.4H364v-5.7h-30.4C333.1,173,332.4,171.8,331.4,170.8z"/>
		<rect x="259" y="156.7" class="st0" width="105" height="5.7"/>
		<path class="st0" d="M359,121.5c-0.4-1.5-1.2-2.8-2.3-3.9c-3.5-3.4-9.1-3.4-12.7,0c-1.1,1.1-1.9,2.4-2.3,3.9H259v5.7h83.1
			c1.3,3.4,4.6,5.5,8.2,5.5c2.4,0.1,4.7-0.9,6.4-2.5c0.9-0.8,1.6-1.9,2-3h5.3v-5.7H359z"/>
	</g>
</g>
</svg>
