<?xml version="1.0" encoding="UTF-8"?><svg id="Layer_1" xmlns="http://www.w3.org/2000/svg" width="1890" height="850" viewBox="0 0 1890 850"><defs><style>.cls-1{fill:#cd9dc3;}.cls-2{fill:#96ba76;}.cls-3{fill:#2672b9;}.cls-4{fill:#dd9123;}</style></defs><rect class="cls-3" width="1890" height="850"/><g><path class="cls-4" d="M943.2,492.33c43.79,0,79.29-34.57,79.29-77.21s-35.5-77.21-79.29-77.21-79.29,34.57-79.29,77.21,35.5,77.21,79.29,77.21Z"/><path class="cls-2" d="M833.27,327.14c-3.78-12.22-7.28-27.35-8.78-44.88-2.55-29.63,1.57-54.47,5.98-71.72-27.01-24.95-68.68-26.55-97.28-3.99-29.14,22.98-36.55,64.63-16.88,96.42,15.31-2.94,44.25-6.26,77.29,4.45,16.9,5.47,30.15,13.09,39.67,19.71Z"/><path class="cls-2" d="M849.49,513.89c-5.68,11.49-11.54,25.91-15.84,43.03-7.26,28.91-7.19,54.16-5.62,71.93-30.59,20.42-71.85,15.4-96.37-11.45-24.98-27.36-25.61-69.76-1.15-98.11,14.59,5.34,42.55,13.21,76.77,7.84,17.51-2.75,31.78-8.18,42.21-13.22h0Z"/><path class="cls-1" d="M940,302c5.25-11.42,12.65-24.8,23.15-38.69,17.74-23.49,37.35-39.2,52.13-49.13-3.89-35.57-34.36-63.22-70.98-64.75-37.31-1.55-70.58,24.48-76.79,60.43,13.54,7.55,37.66,23.49,55.55,52.37,9.16,14.78,14.13,28.82,16.95,39.75h0Z"/><path class="cls-1" d="M937.22,546.21c-4.54,11.85-11.1,25.8-20.71,40.45-16.26,24.77-34.87,41.8-49.01,52.68,6.07,35.72,38.2,61.89,74.85,61.29,37.34-.62,68.93-28.85,72.92-65.54-13.99-6.84-39.04-21.54-58.68-49.69-10.05-14.41-15.88-28.3-19.37-39.19h0Z"/><path class="cls-1" d="M802.63,415.06c-12.36,3.55-27.01,8.93-42.59,17.22-26.33,14.03-44.99,30.91-57.08,43.89-35.84-8.52-60.08-41.73-56.8-77.39,3.35-36.33,34.32-65.05,71.89-66.26,5.93,14.12,19.04,39.61,46.2,60.8,13.89,10.85,27.59,17.54,38.39,21.73h0Z"/><path class="cls-2" d="M1045.92,327.14c3.73-12.22,7.17-27.35,8.65-44.88,2.51-29.63-1.55-54.47-5.89-71.72,26.63-24.95,67.71-26.55,95.9-3.99,28.72,22.98,36.04,64.63,16.64,96.42-15.09-2.94-43.63-6.26-76.2,4.45-16.66,5.47-29.73,13.09-39.12,19.71Z"/><path class="cls-2" d="M1031.5,513.89c5.61,11.49,11.39,25.91,15.63,43.03,7.17,28.91,7.1,54.16,5.55,71.93,30.19,20.42,70.9,15.4,95.1-11.45,24.65-27.36,25.27-69.76,1.13-98.11-14.4,5.34-41.99,13.21-75.76,7.84-17.28-2.75-31.36-8.18-41.66-13.22h0Z"/><path class="cls-1" d="M1089.17,415.06c12.22,3.55,26.7,8.93,42.11,17.22,26.03,14.03,44.47,30.91,56.43,43.89,35.43-8.52,59.39-41.73,56.15-77.39-3.31-36.33-33.93-65.05-71.07-66.26-5.86,14.12-18.82,39.61-45.66,60.8-13.74,10.85-27.27,17.54-37.95,21.73h0Z"/></g></svg>