<svg width="1890" height="850" viewBox="0 0 1890 850" fill="none" xmlns="http://www.w3.org/2000/svg">
<rect width="1890" height="850" fill="#050505"/>
<path d="M536.73 435.36C538.45 432.45 540.4 429.16 540.4 425.19C540.4 421.22 538.4 417.94 536.73 415.03C535.751 413.569 534.977 411.981 534.43 410.31C534.178 408.489 534.178 406.642 534.43 404.82C534.71 401.51 535.03 397.75 533.36 394.29C531.69 390.83 528.5 388.67 525.71 386.82C524.16 385.909 522.743 384.789 521.5 383.49C520.502 381.979 519.718 380.336 519.17 378.61C517.98 375.49 516.63 371.95 513.6 369.53C510.57 367.11 506.84 366.59 503.54 366.12C501.722 365.968 499.935 365.56 498.23 364.91C496.701 364 495.307 362.879 494.09 361.58C491.65 359.26 488.88 356.64 485.09 355.76C481.3 354.88 477.82 356.06 474.67 357.06C472.931 357.728 471.106 358.146 469.25 358.3C467.394 358.145 465.569 357.727 463.83 357.06C460.68 356.06 457.11 354.92 453.41 355.76C449.71 356.6 446.8 359.26 444.41 361.58C443.193 362.879 441.799 364 440.27 364.91C438.569 365.559 436.785 365.966 434.97 366.12C431.66 366.59 427.97 367.12 424.9 369.53C421.83 371.94 420.53 375.53 419.34 378.61C418.795 380.336 418.007 381.976 417 383.48C415.76 384.785 414.343 385.909 412.79 386.82C410 388.67 406.79 390.82 405.14 394.29C403.49 397.76 403.69 401.51 404 404.82C404.252 406.642 404.252 408.489 404 410.31C403.453 411.981 402.679 413.569 401.7 415.03C400 417.94 398 421.23 398 425.19C398 429.15 400 432.45 401.67 435.36C402.663 436.832 403.447 438.434 404 440.12C404.252 441.942 404.252 443.789 404 445.61C403.72 448.92 403.4 452.68 405.07 456.14C406.74 459.6 409.93 461.76 412.72 463.61C414.27 464.521 415.687 465.642 416.93 466.94C417.935 468.449 418.723 470.092 419.27 471.82C420.46 474.94 421.8 478.48 424.83 480.9C427.86 483.32 431.59 483.84 434.9 484.31C436.715 484.464 438.499 484.871 440.2 485.52C441.727 486.43 443.121 487.547 444.34 488.84C446.78 491.16 449.55 493.79 453.34 494.66C457.13 495.53 460.61 494.37 463.76 493.36C465.507 492.695 467.338 492.278 469.2 492.12C471.055 492.276 472.879 492.69 474.62 493.35C477.099 494.28 479.706 494.819 482.35 494.95C483.255 494.954 484.158 494.853 485.04 494.65C488.88 493.78 491.65 491.15 494.04 488.83C495.259 487.537 496.653 486.42 498.18 485.51C499.885 484.86 501.672 484.453 503.49 484.3C506.79 483.83 510.49 483.3 513.55 480.89C516.61 478.48 517.92 474.89 519.12 471.81C519.664 470.082 520.449 468.44 521.45 466.93C522.693 465.632 524.11 464.511 525.66 463.6C528.45 461.74 531.66 459.6 533.31 456.13C534.96 452.66 534.66 448.91 534.38 445.6C534.128 443.779 534.128 441.932 534.38 440.11C534.94 438.426 535.731 436.828 536.73 435.36ZM469.2 479.43C458.472 479.43 447.986 476.249 439.066 470.289C430.146 464.329 423.194 455.858 419.089 445.947C414.983 436.036 413.909 425.13 416.002 414.609C418.095 404.087 423.261 394.422 430.847 386.837C438.432 379.251 448.097 374.085 458.618 371.992C469.14 369.9 480.046 370.974 489.957 375.079C499.868 379.184 508.339 386.136 514.299 395.056C520.259 403.976 523.44 414.463 523.44 425.19C523.424 439.571 517.704 453.358 507.536 463.526C497.367 473.695 483.58 479.414 469.2 479.43Z" fill="#B57912"/>
<path d="M581.4 474.52H654.2V492.92H560V360.92H581.4V474.52Z" fill="#B57912"/>
<path d="M680 360.92V492.92H674.4V360.92H680ZM764.4 360.92L710.8 415.72L710 416.52L677 449.92V442.12L756.8 360.92H764.4ZM711 411.72L766.2 492.92H759.2L706.8 415.72L711 411.72Z" fill="white"/>
<path d="M795.2 487.92H877V492.92H789.6V360.92H795.2V487.92Z" fill="white"/>
<path d="M989.6 360.92V445.52C989.6 461.52 985.2 473.754 976.4 482.22C967.6 490.687 955.267 494.92 939.4 494.92C923.66 494.92 911.36 490.687 902.5 482.22C893.64 473.754 889.207 461.52 889.2 445.52V360.92H894.8V444.72C894.8 459.247 898.7 470.414 906.5 478.22C914.3 486.027 925.267 489.927 939.4 489.92C953.66 489.92 964.66 486.02 972.4 478.22C980.14 470.42 984.007 459.254 984 444.72V360.92H989.6Z" fill="white"/>
<path d="M1026.8 492.92V360.92H1073.2C1086.93 360.92 1097.26 363.82 1104.2 369.62C1111.14 375.42 1114.61 383.854 1114.6 394.92C1114.6 403.047 1112.47 409.814 1108.2 415.22C1103.93 420.627 1097.53 424.26 1089 426.12V426.32C1098.06 427.653 1105.19 431.087 1110.4 436.62C1115.61 442.153 1118.21 449.453 1118.2 458.52C1118.2 469.587 1114.4 478.087 1106.8 484.02C1099.2 489.953 1088 492.92 1073.2 492.92H1026.8ZM1032.4 423.72H1073.2C1096.93 423.72 1108.79 414.187 1108.8 395.12C1108.8 375.653 1096.93 365.92 1073.2 365.92H1032.4V423.72ZM1032.4 487.92H1074C1086.67 487.92 1096.23 485.387 1102.7 480.32C1109.17 475.253 1112.4 467.92 1112.4 458.32C1112.4 448.593 1109.17 441.26 1102.7 436.32C1096.23 431.38 1086.67 428.913 1074 428.92H1032.4V487.92Z" fill="white"/>
<path d="M1150.19 492.92V360.92H1196.59C1210.33 360.92 1220.66 363.82 1227.59 369.62C1234.52 375.42 1237.99 383.854 1238 394.92C1238 403.047 1235.87 409.814 1231.6 415.22C1227.33 420.627 1220.93 424.26 1212.4 426.12V426.32C1221.46 427.653 1228.59 431.087 1233.79 436.62C1238.99 442.153 1241.59 449.453 1241.59 458.52C1241.59 469.587 1237.79 478.087 1230.19 484.02C1222.59 489.953 1211.39 492.92 1196.59 492.92H1150.19ZM1155.79 423.72H1196.59C1220.33 423.72 1232.2 414.187 1232.19 395.12C1232.19 375.653 1220.32 365.92 1196.59 365.92H1155.79V423.72ZM1155.79 487.92H1197.4C1210.07 487.92 1219.63 485.387 1226.09 480.32C1232.55 475.253 1235.78 467.92 1235.79 458.32C1235.79 448.593 1232.56 441.26 1226.09 436.32C1219.62 431.38 1210.06 428.913 1197.4 428.92H1155.79V487.92Z" fill="white"/>
<path d="M1273.59 492.92V360.92H1362V365.92H1279.2V423.12H1345.2V428.12H1279.2V487.92H1365.2V492.92H1273.59Z" fill="white"/>
<path d="M1492.19 360.92V492.92H1484.79L1404.19 378.12L1397.39 367.12H1397.19L1397.59 380.12V492.92H1392.19V360.92H1399.39L1480 475.72L1487 486.92L1486.8 473.72V360.92H1492.19Z" fill="white"/>
<path d="M527.15 360.92L410.73 494.92" stroke="#B57912" stroke-width="12" stroke-miterlimit="10"/>
<path d="M398 322H1492.19" stroke="white" stroke-width="7" stroke-miterlimit="10"/>
<path d="M398 528.39H1492.19" stroke="white" stroke-width="7" stroke-miterlimit="10"/>
</svg>
