<?xml version="1.0" encoding="utf-8"?>
<!-- Generator: Adobe Illustrator 26.0.3, SVG Export Plug-In . SVG Version: 6.00 Build 0)  -->
<svg version="1.1" id="Layer_1" xmlns="http://www.w3.org/2000/svg" xmlns:xlink="http://www.w3.org/1999/xlink" x="0px" y="0px"
	 viewBox="0 0 32 32" style="enable-background:new 0 0 32 32;" xml:space="preserve">
<style type="text/css">
	.st0{fill:#F9F9F9;}
</style>
<path class="st0" d="M16,10.2c-3.2,0-5.8,2.6-5.8,5.8s2.6,5.8,5.8,5.8s5.8-2.6,5.8-5.8l0,0C21.8,12.8,19.2,10.2,16,10.2z M16,20.2
	c-2.3,0-4.2-1.9-4.2-4.2s1.9-4.2,4.2-4.2s4.2,1.9,4.2,4.2C20.2,18.3,18.3,20.2,16,20.2z M21.5,3.8h-11c-3.7,0-6.8,3-6.8,6.8v11
	c0,3.7,3,6.8,6.8,6.8l0,0h11c3.7,0,6.8-3,6.8-6.8l0,0v-11C28.2,6.8,25.2,3.8,21.5,3.8z M26.8,21.5c0,2.9-2.4,5.2-5.2,5.2l0,0h-11
	c-2.9,0-5.2-2.4-5.2-5.2l0,0v-11c0-2.9,2.4-5.2,5.2-5.2h11c2.9,0,5.2,2.4,5.2,5.2V21.5z M23.8,9.5c0,0.7-0.6,1.2-1.2,1.2
	s-1.2-0.6-1.2-1.2s0.6-1.2,1.2-1.2S23.8,8.8,23.8,9.5z"/>
</svg>
